nColumns=19
nRows=143
DataType=double
version=3
OpenSimVersion=4.1
endheader
time	ground_force_1_vx	ground_force_1_vy	ground_force_1_vz	ground_force_1_px	ground_force_1_py	ground_force_1_pz	ground_force_1_mx	ground_force_1_my	ground_force_1_mz	ground_force_2_vx	ground_force_2_vy	ground_force_2_vz	ground_force_2_px	ground_force_2_py	ground_force_2_pz	ground_force_2_mx	ground_force_2_my	ground_force_2_mz
2.385	0	0	0	1.35232	0	-0.222163	0	0	0	0	0	0	0.151367	0	-0.308731	0	0	0
2.39	0	0	0	1.37287	0	-0.225528	0	0	0	0	0	0	0.141036	0	-0.306673	0	0	0
2.395	0	0	0	1.39019	0	-0.228777	0	0	0	0	0	0	0.133604	0	-0.306575	0	0	0
2.4	0	0	0	1.40388	0	-0.231915	0	0	0	0	0	0	0.128155	0	-0.306168	0	0	0
2.405	0	0	0	1.41382	0	-0.234908	0	0	0	0	0	0	0.125848	0	-0.307448	0	0	0
2.41	0	0	0	1.42	0	-0.237494	0	0	0	0	0	0	0.12653	0	-0.309161	0	0	0
2.415	0	0	0	1.42249	0	-0.239724	0	0	0	0	0	0	0.129274	0	-0.311034	0	0	0
2.42	0	0	0	1.42126	0	-0.240799	0	0	0	0	0	0	0.137261	0	-0.312995	0	0	0
2.425	0	0	0	1.41675	0	-0.24087	0	0	0	0	0	0	0.146636	0	-0.314546	0	0	0
2.43	0	0	0	1.40913	0	-0.240233	0	0	0	0	0	0	0.158164	0	-0.316021	0	0	0
2.435	0	0	0	1.39848	0	-0.238786	0	0	0	0	0	0	0.171457	0	-0.317583	0	0	0
2.44	0	0	0	1.38474	0	-0.236567	0	0	0	0	0	0	0.186285	0	-0.318627	0	0	0
2.445	0	0	0	1.36796	0	-0.234776	0	0	0	0	0	0	0.203366	0	-0.318724	0	0	0
2.45	0	0	0	1.34906	0	-0.233081	0	0	0	0	0	0	0.220969	0	-0.319988	0	0	0
2.455	0	0	0	1.32756	0	-0.231844	0	0	0	0	0	0	0.2395	0	-0.321648	0	0	0
2.46	-53.6803	119.121	-16.981	1.23707	0	-0.218646	0	2.79745	0	0	0	0	0.25898	0	-0.322891	0	0	0
2.465	-108.279	319.497	-64.82	1.08672	0	-0.201914	0	2.59629	0	0	0	0	0.278571	0	-0.326634	0	0	0
2.47	-179.574	610.204	-134.572	1.08585	0	-0.216864	0	3.71828	0	0	0	0	0.299446	0	-0.328409	0	0	0
2.475	-240.984	960.429	-215.274	1.08535	0	-0.228569	0	2.38159	0	0	0	0	0.320622	0	-0.330573	0	0	0
2.48	-263.759	1341.46	-282.255	1.08186	0	-0.238609	0	0.449919	0	0	0	0	0.34221	0	-0.332962	0	0	0
2.485	-256.676	1739.64	-304.424	1.07217	0	-0.246767	0	6.81411	0	0	0	0	0.363855	0	-0.335929	0	0	0
2.49	-270.038	2126.88	-263.926	1.05804	0	-0.252639	0	18.6269	0	0	0	0	0.38561	0	-0.338999	0	0	0
2.495	-335.584	2450.33	-169.861	1.04704	0	-0.256238	0	23.3206	0	0	0	0	0.407292	0	-0.342209	0	0	0
2.5	-435.877	2677.47	-48.3816	1.04071	0	-0.258301	0	20.9389	0	0	0	0	0.428735	0	-0.345449	0	0	0
2.505	-523.686	2826.26	76.7231	1.03428	0	-0.259526	0	20.1624	0	0	0	0	0.450018	0	-0.349119	0	0	0
2.51	-561.972	2930.68	180.603	1.02229	0	-0.260539	0	23.5735	0	0	0	0	0.471203	0	-0.352278	0	0	0
2.515	-545.751	3002.21	239.176	1.00099	0	-0.261457	0	24.4476	0	0	0	0	0.492866	0	-0.355913	0	0	0
2.52	-479.593	3033.07	239.923	0.969898	0	-0.262479	0	14.866	0	0	0	0	0.51532	0	-0.359423	0	0	0
2.525	-364.103	3021.41	194.721	0.930611	0	-0.26366	0	1.12281	0	0	0	0	0.538899	0	-0.362014	0	0	0
2.53	-212.794	2979.97	133.154	0.887292	0	-0.264904	0	-2.07234	0	0	0	0	0.563759	0	-0.366168	0	0	0
2.535	-56.9856	2918.84	81.7616	0.846558	0	-0.26592	0	6.21368	0	0	0	0	0.590211	0	-0.369026	0	0	0
2.54	76.0224	2833.73	47.2848	0.811934	0	-0.266622	0	14.5896	0	0	0	0	0.618789	0	-0.373421	0	0	0
2.545	187.002	2716.59	21.5559	0.783572	0	-0.266994	0	18.1288	0	0	0	0	0.648749	0	-0.37623	0	0	0
2.55	289.928	2560.02	-7.13834	0.759413	0	-0.267486	0	22.1666	0	0	0	0	0.681018	0	-0.378725	0	0	0
2.555	383.669	2350.8	-41.1493	0.734894	0	-0.268494	0	33.1297	0	0	0	0	0.715032	0	-0.380291	0	0	0
2.56	453.217	2078.83	-69.5418	0.704821	0	-0.270148	0	49.8014	0	0	0	0	0.750749	0	-0.380851	0	0	0
2.565	491.636	1755.47	-69.3739	0.665814	0	-0.271828	0	59.8964	0	0	0	0	0.78823	0	-0.381112	0	0	0
2.57	504.25	1409.51	-22.9617	0.615328	0	-0.272377	0	46.9297	0	0	0	0	0.827291	0	-0.380837	0	0	0
2.575	492.807	1065.16	59.5303	0.546661	0	-0.270584	0	3.74119	0	0	0	0	0.867983	0	-0.380063	0	0	0
2.58	454.362	740.678	141.433	0.445243	0	-0.265845	0	-62.6028	0	0	0	0	0.909013	0	-0.37912	0	0	0
2.585	390.892	455.703	182.8	0.280135	0	-0.25941	0	-131.018	0	0	0	0	0.949478	0	-0.377729	0	0	0
2.59	315.972	230.494	164.569	-0.00784201	0	-0.253919	0	-171.464	0	0	0	0	0.989946	0	-0.376067	0	0	0
2.595	243.066	79.5999	94.4705	0.343922	0	-0.251081	0	-143.33	0	0	0	0	1.03016	0	-0.375325	0	0	0
2.6	0	0	0	0.356593	0	-0.248237	0	0	0	0	0	0	1.07058	0	-0.375403	0	0	0
2.605	0	0	0	0.333015	0	-0.244122	0	0	0	0	0	0	1.11076	0	-0.375122	0	0	0
2.61	0	0	0	0.310596	0	-0.238178	0	0	0	0	0	0	1.15067	0	-0.375566	0	0	0
2.615	0	0	0	0.290667	0	-0.231531	0	0	0	0	0	0	1.18987	0	-0.37603	0	0	0
2.62	0	0	0	0.268497	0	-0.226238	0	0	0	0	0	0	1.22862	0	-0.376378	0	0	0
2.625	0	0	0	0.245046	0	-0.223597	0	0	0	0	0	0	1.2664	0	-0.376165	0	0	0
2.63	0	0	0	0.225678	0	-0.219784	0	0	0	0	0	0	1.30252	0	-0.376068	0	0	0
2.635	0	0	0	0.212947	0	-0.214137	0	0	0	0	0	0	1.33723	0	-0.375841	0	0	0
2.64	0	0	0	0.194701	0	-0.209355	0	0	0	0	0	0	1.36982	0	-0.375663	0	0	0
2.645	0	0	0	0.18012	0	-0.206771	0	0	0	0	0	0	1.40015	0	-0.376031	0	0	0
2.65	0	0	0	0.166738	0	-0.205308	0	0	0	0	0	0	1.42669	0	-0.376614	0	0	0
2.655	0	0	0	0.154382	0	-0.20368	0	0	0	0	0	0	1.44904	0	-0.377487	0	0	0
2.66	0	0	0	0.145509	0	-0.203104	0	0	0	0	0	0	1.46518	0	-0.378746	0	0	0
2.665	0	0	0	0.138173	0	-0.202048	0	0	0	0	0	0	1.48003	0	-0.379814	0	0	0
2.67	0	0	0	0.133064	0	-0.204452	0	0	0	0	0	0	1.48855	0	-0.381542	0	0	0
2.675	0	0	0	0.131735	0	-0.204915	0	0	0	0	0	0	1.49371	0	-0.383612	0	0	0
2.68	0	0	0	0.13337	0	-0.207184	0	0	0	0	0	0	1.49473	0	-0.385929	0	0	0
2.685	0	0	0	0.138188	0	-0.209345	0	0	0	0	0	0	1.49208	0	-0.388261	0	0	0
2.69	0	0	0	0.145934	0	-0.212285	0	0	0	0	0	0	1.48651	0	-0.39043	0	0	0
2.695	0	0	0	0.153861	0	-0.215125	0	0	0	0	0	0	1.47936	0	-0.393691	0	0	0
2.7	0	0	0	0.169024	0	-0.216523	0	0	0	0	0	0	1.46884	0	-0.395249	0	0	0
2.705	0	0	0	0.184132	0	-0.218232	0	0	0	0	0	0	1.45605	0	-0.395204	0	0	0
2.71	0	0	0	0.200926	0	-0.219646	0	0	0	0	0	0	1.44127	0	-0.393184	0	0	0
2.715	0	0	0	0.2197	0	-0.219656	0	0	0	0	0	0	1.42316	0	-0.390112	0	0	0
2.72	0	0	0	0.238985	0	-0.220058	0	0	0	0	0	0	1.40324	0	-0.386441	0	0	0
2.725	0	0	0	0.259648	0	-0.21985	0	0	0	0	0	0	1.38142	0	-0.382226	0	0	0
2.73	0	0	0	0.281072	0	-0.219304	0	0	0	0	0	0	1.35774	0	-0.37791	0	0	0
2.735	0	0	0	0.303211	0	-0.218462	0	0	0	-47.0379	17.7891	-6.98586	1.33254	0	-0.373404	0	-20.1496	0
2.74	0	0	0	0.325847	0	-0.218172	0	0	0	-111.839	148.518	3.2816	1.24589	0	-0.409405	0	-13.9305	0
2.745	0	0	0	0.349366	0	-0.216915	0	0	0	-191.032	374.938	32.2539	1.16025	0	-0.422485	0	-11.1814	0
2.75	0	0	0	0.372879	0	-0.215665	0	0	0	-270.516	695.082	91.5358	1.13189	0	-0.402264	0	-2.51065	0
2.755	0	0	0	0.39691	0	-0.214365	0	0	0	-323.715	1071.72	175.239	1.11215	0	-0.386354	0	10.4262	0
2.76	0	0	0	0.420713	0	-0.213116	0	0	0	-332.516	1476.38	252.092	1.09248	0	-0.3735	0	14.7137	0
2.765	0	0	0	0.444725	0	-0.212535	0	0	0	-320.755	1897.75	286.634	1.06509	0	-0.362899	0	-0.72986	0
2.77	0	0	0	0.468622	0	-0.211619	0	0	0	-322.009	2300.07	253.956	1.03568	0	-0.354569	0	-25.7507	0
2.775	0	0	0	0.492837	0	-0.20828	0	0	0	-339.654	2624.65	149.771	1.01627	0	-0.348684	0	-41.1916	0
2.78	0	0	0	0.51648	0	-0.208773	0	0	0	-380.998	2844.55	0.618583	1.00608	0	-0.345042	0	-40.7	0
2.785	0	0	0	0.539404	0	-0.207764	0	0	0	-441.006	2974.02	-142.909	0.998525	0	-0.342936	0	-27.7112	0
2.79	0	0	0	0.562543	0	-0.207881	0	0	0	-480.044	3043.62	-232.552	0.989984	0	-0.341422	0	-11.8735	0
2.795	0	0	0	0.585999	0	-0.207196	0	0	0	-468.178	3082.89	-249.346	0.974922	0	-0.340012	0	-3.23651	0
2.8	0	0	0	0.61077	0	-0.207052	0	0	0	-396.088	3095.62	-208.162	0.948584	0	-0.339041	0	-3.19327	0
2.805	0	0	0	0.636977	0	-0.207106	0	0	0	-268.613	3066.15	-144.816	0.911535	0	-0.339241	0	-4.0391	0
2.81	0	0	0	0.665553	0	-0.207149	0	0	0	-113.021	2994.52	-89.5194	0.868285	0	-0.340428	0	1.35492	0
2.815	0	0	0	0.696047	0	-0.207005	0	0	0	33.6806	2898.04	-52.8035	0.82639	0	-0.341577	0	8.40898	0
2.82	0	0	0	0.728789	0	-0.206117	0	0	0	150.189	2785.08	-26.5851	0.792136	0	-0.341411	0	5.59978	0
2.825	0	0	0	0.763148	0	-0.207037	0	0	0	239.68	2655.6	3.25129	0.767298	0	-0.339471	0	-11.7777	0
2.83	0	0	0	0.799256	0	-0.207443	0	0	0	312.801	2500.78	44.9878	0.748122	0	-0.336158	0	-37.1428	0
2.835	0	0	0	0.836745	0	-0.207954	0	0	0	375.088	2303.41	88.7249	0.728485	0	-0.332579	0	-59.9219	0
2.84	0	0	0	0.87506	0	-0.208101	0	0	0	425.703	2047.22	109.201	0.700996	0	-0.330034	0	-75.0671	0
2.845	0	0	0	0.914488	0	-0.208612	0	0	0	462.618	1731.06	80.8122	0.656634	0	-0.330069	0	-76.7479	0
2.85	0	0	0	0.953992	0	-0.208347	0	0	0	491.18	1376.06	-0.573173	0.589046	0	-0.334001	0	-49.1844	0
2.855	0	0	0	0.993827	0	-0.208031	0	0	0	506.976	1017.88	-114.252	0.494442	0	-0.343642	0	24.3442	0
2.86	0	0	0	1.03317	0	-0.208347	0	0	0	491.278	684.563	-222.452	0.359454	0	-0.362778	0	141.042	0
2.865	0	0	0	1.07181	0	-0.209001	0	0	0	434.856	397.887	-279.484	0.152851	0	-0.397016	0	269.255	0
2.87	0	0	0	1.1103	0	-0.209712	0	0	0	346.326	181.724	-252.493	-0.0149387	0	-0.421767	0	351.842	0
2.875	0	0	0	1.14852	0	-0.213036	0	0	0	241.713	46.8579	-148.071	0.377914	0	-0.343976	0	323.086	0
2.88	0	0	0	1.18436	0	-0.215463	0	0	0	0	0	0	0.353019	0	-0.345511	0	0	0
2.885	0	0	0	1.21944	0	-0.218535	0	0	0	0	0	0	0.329114	0	-0.346239	0	0	0
2.89	0	0	0	1.25322	0	-0.221857	0	0	0	0	0	0	0.306882	0	-0.346211	0	0	0
2.895	0	0	0	1.28507	0	-0.224738	0	0	0	0	0	0	0.289294	0	-0.34308	0	0	0
2.9	0	0	0	1.31536	0	-0.227713	0	0	0	0	0	0	0.270167	0	-0.336856	0	0	0
2.905	0	0	0	1.34369	0	-0.230665	0	0	0	0	0	0	0.251305	0	-0.331315	0	0	0
2.91	0	0	0	1.37005	0	-0.233505	0	0	0	0	0	0	0.237012	0	-0.325192	0	0	0
2.915	0	0	0	1.3939	0	-0.23611	0	0	0	0	0	0	0.225876	0	-0.319775	0	0	0
2.92	0	0	0	1.41514	0	-0.238637	0	0	0	0	0	0	0.214443	0	-0.314469	0	0	0
2.925	0	0	0	1.43309	0	-0.241394	0	0	0	0	0	0	0.201445	0	-0.310421	0	0	0
2.93	0	0	0	1.44872	0	-0.243841	0	0	0	0	0	0	0.193283	0	-0.307534	0	0	0
2.935	0	0	0	1.46055	0	-0.246269	0	0	0	0	0	0	0.181401	0	-0.305025	0	0	0
2.94	0	0	0	1.46907	0	-0.248646	0	0	0	0	0	0	0.175645	0	-0.30411	0	0	0
2.945	0	0	0	1.4746	0	-0.250974	0	0	0	0	0	0	0.173548	0	-0.303342	0	0	0
2.95	0	0	0	1.47661	0	-0.253121	0	0	0	0	0	0	0.17437	0	-0.304072	0	0	0
2.955	0	0	0	1.47571	0	-0.25494	0	0	0	0	0	0	0.178276	0	-0.303563	0	0	0
2.96	0	0	0	1.47181	0	-0.256173	0	0	0	0	0	0	0.182795	0	-0.305808	0	0	0
2.965	0	0	0	1.4651	0	-0.256612	0	0	0	0	0	0	0.19076	0	-0.307179	0	0	0
2.97	0	0	0	1.45615	0	-0.255995	0	0	0	0	0	0	0.200708	0	-0.308434	0	0	0
2.975	0	0	0	1.44482	0	-0.25447	0	0	0	0	0	0	0.212478	0	-0.31011	0	0	0
2.98	0	0	0	1.43015	0	-0.251506	0	0	0	0	0	0	0.225784	0	-0.311929	0	0	0
2.985	0	0	0	1.4134	0	-0.24816	0	0	0	0	0	0	0.240609	0	-0.313763	0	0	0
2.99	0	0	0	1.39454	0	-0.245625	0	0	0	0	0	0	0.256476	0	-0.315654	0	0	0
2.995	0	0	0	1.37353	0	-0.243168	0	0	0	0	0	0	0.273458	0	-0.317656	0	0	0
3	0	0	0	1.35055	0	-0.241347	0	0	0	0	0	0	0.291708	0	-0.319534	0	0	0
3.005	-29.0985	35.0518	10.4224	1.32584	0	-0.240165	0	4.06101	0	0	0	0	0.310581	0	-0.321016	0	0	0
3.01	-70.0134	170.766	-17.8623	1.15983	0	-0.217151	0	4.49176	0	0	0	0	0.330285	0	-0.323351	0	0	0
3.015	-136.719	395.639	-63.7634	1.08766	0	-0.218062	0	5.51689	0	0	0	0	0.350421	0	-0.325729	0	0	0
3.02	-211.975	701.4	-130.007	1.09135	0	-0.231156	0	1.36254	0	0	0	0	0.371004	0	-0.328863	0	0	0
3.025	-263.099	1061.68	-209.167	1.09094	0	-0.242382	0	-7.51393	0	0	0	0	0.392257	0	-0.33243	0	0	0
3.03	-273.07	1460.18	-274.608	1.08598	0	-0.25184	0	-9.64287	0	0	0	0	0.413414	0	-0.335413	0	0	0
3.035	-269.97	1871.87	-290.441	1.07562	0	-0.258737	0	3.7125	0	0	0	0	0.434368	0	-0.338408	0	0	0
3.04	-300.734	2244.87	-235.662	1.06477	0	-0.262911	0	20.8865	0	0	0	0	0.455571	0	-0.341797	0	0	0
3.045	-382.883	2521.03	-117.309	1.05721	0	-0.264585	0	27.1242	0	0	0	0	0.476717	0	-0.34597	0	0	0
3.05	-487.411	2688.51	32.4675	1.05057	0	-0.26472	0	20.6471	0	0	0	0	0.498069	0	-0.349851	0	0	0
3.055	-562.685	2787.31	173.51	1.0397	0	-0.264185	0	8.29384	0	0	0	0	0.5196	0	-0.353548	0	0	0
3.06	-575.9	2858.84	260.711	1.01994	0	-0.264094	0	-1.22816	0	0	0	0	0.541517	0	-0.356179	0	0	0
3.065	-521.88	2913.17	265.513	0.990086	0	-0.264952	0	-4.26588	0	0	0	0	0.564393	0	-0.359403	0	0	0
3.07	-410.335	2940.35	194.36	0.951638	0	-0.266939	0	-2.24415	0	0	0	0	0.588063	0	-0.364409	0	0	0
3.075	-258.832	2932.29	93.5777	0.907455	0	-0.269327	0	5.69359	0	0	0	0	0.613388	0	-0.368237	0	0	0
3.08	-95.1273	2890.37	19.1178	0.862669	0	-0.271044	0	16.5731	0	0	0	0	0.639941	0	-0.37296	0	0	0
3.085	49.4874	2817.71	-5.40127	0.82208	0	-0.271611	0	19.6477	0	0	0	0	0.668519	0	-0.376895	0	0	0
3.09	164.513	2718.93	3.69299	0.788747	0	-0.271342	0	11.6158	0	0	0	0	0.695688	0	-0.380946	0	0	0
3.095	261.189	2594.96	15.8349	0.763217	0	-0.270899	0	3.21453	0	0	0	0	0.730312	0	-0.384616	0	0	0
